<mxfile host="drawio-plugin" modified="2023-10-11T13:47:39.691Z" agent="5.0 (Windows NT 10.0; Win64; x64) AppleWebKit/537.36 (KHTML, like Gecko) Chrome/111.0.0.0 Safari/537.36" etag="YklNoYu8c0MbGRCzsuT3" version="20.5.3" type="embed"><diagram id="23iRSUPoRavnBvh4doch" name="Page-1"><mxGraphModel dx="972" dy="523" grid="1" gridSize="10" guides="1" tooltips="1" connect="1" arrows="1" fold="1" page="1" pageScale="1" pageWidth="827" pageHeight="1169" math="0" shadow="0"><root><mxCell id="0"/><mxCell id="1" parent="0"/><mxCell id="4" value="" style="edgeStyle=orthogonalEdgeStyle;rounded=0;orthogonalLoop=1;jettySize=auto;html=1;" edge="1" parent="1" source="2" target="3"><mxGeometry relative="1" as="geometry"/></mxCell><mxCell id="7" value="Shops" style="edgeLabel;html=1;align=center;verticalAlign=middle;resizable=0;points=[];" vertex="1" connectable="0" parent="4"><mxGeometry x="-0.3446" y="3" relative="1" as="geometry"><mxPoint x="16" y="3" as="offset"/></mxGeometry></mxCell><mxCell id="2" value="" style="verticalLabelPosition=bottom;html=1;verticalAlign=top;align=center;strokeColor=none;fillColor=#00BEF2;shape=mxgraph.azure.user;" vertex="1" parent="1"><mxGeometry x="110" y="160" width="47.5" height="50" as="geometry"/></mxCell><mxCell id="10" value="" style="edgeStyle=orthogonalEdgeStyle;rounded=0;orthogonalLoop=1;jettySize=auto;html=1;" edge="1" parent="1" source="3" target="8"><mxGeometry relative="1" as="geometry"/></mxCell><mxCell id="11" value="Payment Details / Decisions" style="edgeLabel;html=1;align=center;verticalAlign=middle;resizable=0;points=[];" vertex="1" connectable="0" parent="10"><mxGeometry x="-0.1819" y="-1" relative="1" as="geometry"><mxPoint as="offset"/></mxGeometry></mxCell><mxCell id="3" value="" style="html=1;verticalLabelPosition=bottom;align=center;labelBackgroundColor=#ffffff;verticalAlign=top;strokeWidth=2;strokeColor=#0080F0;shadow=0;dashed=0;shape=mxgraph.ios7.icons.shopping_cart;" vertex="1" parent="1"><mxGeometry x="270" y="172.25" width="30" height="25.5" as="geometry"/></mxCell><mxCell id="5" value="Buyer" style="text;html=1;align=center;verticalAlign=middle;resizable=0;points=[];autosize=1;strokeColor=none;fillColor=none;" vertex="1" parent="1"><mxGeometry x="110" y="230" width="50" height="30" as="geometry"/></mxCell><mxCell id="6" value="Merchant" style="text;html=1;align=center;verticalAlign=middle;resizable=0;points=[];autosize=1;strokeColor=none;fillColor=none;" vertex="1" parent="1"><mxGeometry x="255" y="205" width="70" height="30" as="geometry"/></mxCell><mxCell id="14" value="" style="edgeStyle=orthogonalEdgeStyle;rounded=0;orthogonalLoop=1;jettySize=auto;html=1;" edge="1" parent="1" source="8" target="13"><mxGeometry relative="1" as="geometry"/></mxCell><mxCell id="8" value="Payment Service" style="strokeColor=#dddddd;shadow=1;strokeWidth=1;rounded=1;absoluteArcSize=1;arcSize=2;labelPosition=center;verticalLabelPosition=middle;align=center;verticalAlign=bottom;spacingLeft=0;fontColor=#999999;fontSize=12;whiteSpace=wrap;spacingBottom=2;" vertex="1" parent="1"><mxGeometry x="540" y="142.5" width="100" height="85" as="geometry"/></mxCell><mxCell id="9" value="" style="sketch=0;dashed=0;connectable=0;html=1;fillColor=#757575;strokeColor=none;shape=mxgraph.gcp2.payment;part=1;" vertex="1" parent="8"><mxGeometry x="0.5" width="50" height="40" relative="1" as="geometry"><mxPoint x="-25" y="15" as="offset"/></mxGeometry></mxCell><mxCell id="20" value="" style="edgeStyle=orthogonalEdgeStyle;rounded=0;orthogonalLoop=1;jettySize=auto;html=1;fontSize=12;fontColor=#330000;" edge="1" parent="1" source="13" target="16"><mxGeometry relative="1" as="geometry"/></mxCell><mxCell id="13" value="" style="rounded=0;whiteSpace=wrap;html=1;fillColor=#2F0A66;" vertex="1" parent="1"><mxGeometry x="720" y="120" width="40" height="130" as="geometry"/></mxCell><mxCell id="15" value="Payment Gateway" style="text;html=1;align=center;verticalAlign=middle;resizable=0;points=[];autosize=1;strokeColor=none;fillColor=none;" vertex="1" parent="1"><mxGeometry x="690" y="270" width="120" height="30" as="geometry"/></mxCell><mxCell id="24" value="" style="edgeStyle=orthogonalEdgeStyle;rounded=0;orthogonalLoop=1;jettySize=auto;html=1;fontSize=12;fontColor=#330000;" edge="1" parent="1" source="16" target="19"><mxGeometry relative="1" as="geometry"/></mxCell><mxCell id="27" value="Approval" style="edgeLabel;html=1;align=center;verticalAlign=middle;resizable=0;points=[];fontSize=12;fontColor=#330000;" vertex="1" connectable="0" parent="24"><mxGeometry x="-0.1263" y="2" relative="1" as="geometry"><mxPoint as="offset"/></mxGeometry></mxCell><mxCell id="16" value="" style="shape=mxgraph.signs.travel.bank;html=1;pointerEvents=1;fillColor=#000000;strokeColor=none;verticalLabelPosition=bottom;verticalAlign=top;align=center;" vertex="1" parent="1"><mxGeometry x="690" y="350" width="99" height="86" as="geometry"/></mxCell><mxCell id="17" value="Acquiring Bank" style="text;html=1;align=center;verticalAlign=middle;resizable=0;points=[];autosize=1;strokeColor=none;fillColor=none;" vertex="1" parent="1"><mxGeometry x="700" y="450" width="100" height="30" as="geometry"/></mxCell><mxCell id="18" value="VISA" style="text;html=1;align=center;verticalAlign=middle;resizable=0;points=[];autosize=1;strokeColor=none;fillColor=none;fontStyle=1;fontColor=#2F0A66;fontSize=32;" vertex="1" parent="1"><mxGeometry x="490" y="380" width="100" height="50" as="geometry"/></mxCell><mxCell id="19" value="Card Network" style="text;html=1;align=center;verticalAlign=middle;resizable=0;points=[];autosize=1;strokeColor=none;fillColor=none;fontSize=12;fontColor=#330000;" vertex="1" parent="1"><mxGeometry x="490" y="430" width="100" height="30" as="geometry"/></mxCell><mxCell id="25" value="" style="edgeStyle=orthogonalEdgeStyle;rounded=0;orthogonalLoop=1;jettySize=auto;html=1;fontSize=12;fontColor=#330000;" edge="1" parent="1" source="23" target="19"><mxGeometry relative="1" as="geometry"/></mxCell><mxCell id="26" value="Approval Decision" style="edgeLabel;html=1;align=center;verticalAlign=middle;resizable=0;points=[];fontSize=12;fontColor=#330000;" vertex="1" connectable="0" parent="25"><mxGeometry x="-0.2618" y="2" relative="1" as="geometry"><mxPoint as="offset"/></mxGeometry></mxCell><mxCell id="23" value="" style="shape=mxgraph.signs.travel.bank;html=1;pointerEvents=1;fillColor=#000000;strokeColor=none;verticalLabelPosition=bottom;verticalAlign=top;align=center;fontSize=12;fontColor=#330000;" vertex="1" parent="1"><mxGeometry x="220" y="380" width="99" height="86" as="geometry"/></mxCell><mxCell id="28" value="Payment Service Provider" style="text;html=1;align=center;verticalAlign=middle;resizable=0;points=[];autosize=1;strokeColor=none;fillColor=none;fontSize=12;fontColor=#330000;" vertex="1" parent="1"><mxGeometry x="510" y="250" width="160" height="30" as="geometry"/></mxCell><mxCell id="29" value="Payment Processing Architecture&amp;nbsp;" style="text;html=1;align=center;verticalAlign=middle;resizable=0;points=[];autosize=1;strokeColor=none;fillColor=none;fontSize=20;fontColor=#330000;fontStyle=1" vertex="1" parent="1"><mxGeometry x="175" y="90" width="350" height="40" as="geometry"/></mxCell><mxCell id="31" value="Payment Settlement Architecture&amp;nbsp;" style="text;html=1;align=center;verticalAlign=middle;resizable=0;points=[];autosize=1;strokeColor=none;fillColor=none;fontSize=20;fontColor=#330000;fontStyle=1" vertex="1" parent="1"><mxGeometry x="185" y="520" width="340" height="40" as="geometry"/></mxCell><mxCell id="32" value="" style="html=1;verticalLabelPosition=bottom;align=center;labelBackgroundColor=#ffffff;verticalAlign=top;strokeWidth=2;strokeColor=#0080F0;shadow=0;dashed=0;shape=mxgraph.ios7.icons.shopping_cart;fontSize=20;fontColor=#330000;fillColor=#2F0A66;" vertex="1" parent="1"><mxGeometry x="60" y="640" width="30" height="25.5" as="geometry"/></mxCell></root></mxGraphModel></diagram></mxfile>